<?xml version="1.0" encoding="utf-8"?>
<!-- Generator: Adobe Illustrator 25.3.1, SVG Export Plug-In . SVG Version: 6.00 Build 0)  -->
<svg version="1.1" id="Layer_1_1_" xmlns="http://www.w3.org/2000/svg" xmlns:xlink="http://www.w3.org/1999/xlink" x="0px" y="0px"
	 width="64px" height="64px" viewBox="0 0 64 64" style="enable-background:new 0 0 64 64;" xml:space="preserve">
<style type="text/css">
	.st0{fill:#006699;}
</style>
<g id="XMLID_1_">
	<g>
		<path class="st0" d="M58.5,16.7l-0.8,1.8c-1-0.4-2-0.8-3-1l0.5-1.9C56.3,15.8,57.5,16.2,58.5,16.7z"/>
		<path class="st0" d="M48.7,15.2c1.4-0.2,2.9-0.2,4.3,0l-0.2,2c-1.2-0.1-2.5-0.1-3.8,0c-1.9,0.2-3.8,0.8-5.5,1.7l-0.9-1.8
			C44.5,16.1,46.6,15.5,48.7,15.2z"/>
		<path class="st0" d="M57.2,38.9l-1.9,0.3l-0.2,1.4C55.9,40.1,56.6,39.5,57.2,38.9z M56.6,29.4l1.2-3.5c-1-1.3-2.4-2.4-3.9-3L51,25
			v2.5l3.2,2.4L56.6,29.4z M58.9,36.6c0.5-1,0.9-2.1,1-3.3l-2.7-2l-2.4,0.6l-1.2,3.5l1.3,1.8L58.9,36.6z M59.9,30.8
			c-0.1-1-0.4-1.9-0.7-2.7l-0.6,1.8L59.9,30.8z M45,40.6l-0.2-1.5l-2-0.3C43.4,39.5,44.1,40.1,45,40.6z M48.2,34.5h3.5l1.1-3.1
			L50,29.2l-2.8,2.1L48.2,34.5z M49,27.5V25l-2.9-2.2c-1.5,0.7-2.8,1.7-3.9,2.9l1.3,3.6l2.3,0.6L49,27.5z M50,22c-0.5,0-1,0-1.5,0.1
			l1.5,1.1l1.5-1.1C51,22,50.5,22,50,22z M50,42c1,0,2.1-0.2,3-0.5l0.4-3l-1.4-2H48l-1.4,2l0.4,3C48,41.8,49,42,50,42z M41.5,29.8
			L40.9,28c-0.4,0.9-0.7,1.9-0.8,2.9L41.5,29.8z M41.1,36.6l4,0.6l1.2-1.8l-1.2-3.5l-2.3-0.5l-2.8,2C40.2,34.5,40.6,35.6,41.1,36.6z
			 M38,32c0-6.6,5.4-12,12-12s12,5.4,12,12s-5.4,12-12,12S38,38.6,38,32z"/>
		<path class="st0" d="M29.8,24c0,1-0.8,1.8-1.8,1.8S26.2,25,26.2,24s0.8-1.8,1.8-1.8S29.8,23,29.8,24z M28.2,24
			c0-0.1-0.1-0.2-0.2-0.2s-0.2,0.1-0.2,0.2C27.8,24.3,28.2,24.3,28.2,24z"/>
		<path class="st0" d="M26.8,30c0,2.1-1.7,3.8-3.8,3.8s-3.8-1.7-3.8-3.8h1.5c0,1.2,1,2.2,2.2,2.2s2.2-1,2.2-2.2H26.8z"/>
		<path class="st0" d="M17.8,24c0,0.3,0.5,0.3,0.5,0c0-0.1-0.1-0.2-0.2-0.2S17.8,23.9,17.8,24z M19.8,24c0,1-0.8,1.8-1.8,1.8
			S16.2,25,16.2,24s0.8-1.8,1.8-1.8S19.8,23,19.8,24z"/>
		<path class="st0" d="M16,53c-1.1,0-2,0.9-2,2s0.9,2,2,2s2-0.9,2-2S17.1,53,16,53z M16,51c2.2,0,4,1.8,4,4s-1.8,4-4,4s-4-1.8-4-4
			S13.8,51,16,51z"/>
		<path class="st0" d="M15.2,14H15c-0.7,0-1.4-0.1-2-0.4v3.9L15.2,14z M8,60V43.1c-2.3,0.5-4,2.5-4,4.9v12H8z M11,22h-0.5
			C9.7,22,9,22.7,9,23.5S9.7,25,10.5,25H11V22z M42,60V48c0-2.8-2.2-5-5-5v1v2v1v2v11H42z M33,12V8c0-2.2-1.8-4-4-4H11v4
			c0,2.2,1.8,4,4,4H33z M33,17.5V14h-2.2L33,17.5z M35,25h0.5c0.8,0,1.5-0.7,1.5-1.5S36.3,22,35.5,22H35V25z M35,13v7h0.5
			c1.9,0,3.5,1.6,3.5,3.5S37.4,27,35.5,27H35v2.2c0,2.1-0.9,4-2.5,5.4c0,0-0.1,0.1-0.2,0.1L29,36.5v2.7l8.1,1.8
			c3.8,0.1,6.9,3.2,6.9,7v13c0,0.5-0.5,1-1,1H3c-0.5,0-1-0.5-1-1V48c0-3.8,3.1-6.9,6.9-7l8.1-1.8v-2.7l-3.3-1.8
			c-0.1,0-0.1-0.1-0.2-0.1c-1.6-1.3-2.5-3.3-2.5-5.4V27h-0.5C8.6,27,7,25.4,7,23.5S8.6,20,10.5,20H11v-7.5C9.8,11.4,9,9.8,9,8V3
			c0-0.5,0.4-1,1-1h19c3.3,0,6,2.7,6,6V13z M28.7,42.7c-1.6,1.6-3.6,2.4-5.7,2.4s-4.1-0.8-5.7-2.4C17.1,42.5,17,42.3,17,42v-0.8
			l-7,1.5V44h6v2h-6v1h6v2h-6v11h25V49h-5v-2h5v-1h-5v-2h5v-1.4l-6-1.3V42C29,42.3,28.9,42.5,28.7,42.7z M27,41.6v-4
			c-0.7,0.3-1.5,0.5-2.3,0.5h-3.4c-0.8,0-1.6-0.2-2.3-0.5v4C21.3,43.6,24.7,43.6,27,41.6z M26.7,35.5l4.6-2.5c1.1-1,1.7-2.3,1.7-3.8
			v-7.9L28.5,14H17.5L13,21.3v7.9c0,1.5,0.6,2.8,1.7,3.8l4.6,2.5c0.6,0.3,1.3,0.5,2,0.5h3.4C25.4,36,26.1,35.8,26.7,35.5z"/>
	</g>
	<g>
	</g>
</g>
</svg>
