<?xml version="1.0" encoding="utf-8"?>
<!-- Generator: Adobe Illustrator 25.3.1, SVG Export Plug-In . SVG Version: 6.00 Build 0)  -->
<svg version="1.1" id="Calque_1_-_copie_2" xmlns="http://www.w3.org/2000/svg" xmlns:xlink="http://www.w3.org/1999/xlink" x="0px"
	 y="0px" width="100px" height="100px" viewBox="0 0 100 100" style="enable-background:new 0 0 100 100;" xml:space="preserve">
<style type="text/css">
	.st0{fill:#006699;}
</style>
<g>
	<g id="XMLID_1_">
		<g>
			<path class="st0" d="M56,48.8l-11.7-1l-1.7,0.9v2.6l1.7,0.9l11.7-1V48.8z M44.2,46.8l12.3,1.1c0.3,0,0.5,0.2,0.5,0.5v3.3
				c0,0.3-0.2,0.5-0.5,0.5l-12.3,1.1c0,0,0,0,0,0c-0.1,0-0.2,0-0.2-0.1l-2-1.2c-0.2-0.1-0.2-0.3-0.2-0.4v-3.2c0-0.2,0.1-0.3,0.2-0.4
				l2-1.2C44,46.8,44.1,46.7,44.2,46.8z"/>
			<circle class="st0" cx="37.7" cy="50" r="0.6"/>
			<path class="st0" d="M13.3,61v-2.5h-1.5V61H13.3z M13.3,41.5V39h-1.5v2.5H13.3z M79.1,52l8.6-0.9V49L79.1,48L79,48.1l0.6,0.7
				c0.1,0.1,0.1,0.2,0.1,0.3v1.8c0,0.1,0,0.2-0.1,0.3L79,51.9L79.1,52z M36.3,18.8h1.9V16h-1.9v0.3v2.2V18.8z M38.2,81.2h-1.9V84
				h1.9V81.2z M37.7,48.6c-0.8,0-1.4,0.6-1.4,1.4s0.6,1.4,1.4,1.4c0.8,0,1.4-0.6,1.4-1.4S38.5,48.6,37.7,48.6z M35.3,50
				c0-1,0.7-1.9,1.6-2.2H17.5v4.5H37C36,51.9,35.3,51,35.3,50z M33.2,62.4v-5.2h-6.4v5.2H33.2z M33.2,42.9v-5.3h-6.4v5.3H33.2z
				 M34.2,37.6v5.3h1.5v-5.3H34.2z M34.2,57.1v5.2h1.5v-5.2H34.2z M32.7,43.9h-8.2c-0.3,0-0.5-0.2-0.5-0.5v-0.9h-3.7l-2.9,3.8v0.4
				h20.3c0.3,0,0.5,0.2,0.5,0.5v0.4c1.1,0.2,1.9,1.2,1.9,2.3s-0.8,2.1-1.9,2.3v0.4c0,0.3-0.2,0.5-0.5,0.5H17.5v0.4l2.9,3.8H24v-0.9
				c0-0.3,0.2-0.5,0.5-0.5h8.2V55c0-0.5,0.4-1,0.9-1c0,0,1.6-0.1,4.1-0.2c1.8-0.1,4-0.2,6.5-0.4c13.1-0.8,33.8-2,33.8-2l0.6-0.7
				v-1.4L78,48.6c0,0-20.7-1.2-33.8-2C38.1,46.3,33.7,46,33.7,46c-0.5,0-0.9-0.5-0.9-1V43.9z M25,37.6v5.3h0.8v-5.3H25z M25,61.5
				v0.9h0.8v-5.2H25V58V61.5z M35.3,82h-11v1.2h11h0V82z M24.3,18h11v-1.2h-11V18z M14.3,61H24v-2.5h-9.8V61z M24,62h-2.2l-1.3,1.5
				L25.5,81h7.3V63.4h-8.2c-0.3,0-0.5-0.2-0.5-0.5V62z M24,39h-9.8v2.5H24V39z M21.9,38H24v-0.9c0-0.3,0.2-0.5,0.5-0.5h8.2V19h-7.3
				l-4.9,17.5L21.9,38z M35.3,84.2H23.8c-0.3,0-0.5-0.2-0.5-0.5v-0.6h-1.2v0.6c0,0.6-1,0.6-1,0v-2.2c0-0.7,1-0.7,1,0v0.6h1.2v-0.6
				c0-0.1,0.1-0.2,0.1-0.3l-4.9-17.7c-0.1-0.3,0-0.7,0.2-0.9l0.5-0.6h-5.4h-2.5c-0.3,0-0.5-0.2-0.5-0.5V58c0-0.3,0.2-0.5,0.5-0.5
				h2.5h4.1l-2.2-2.9c-0.1-0.2-0.2-0.4-0.2-0.6v-8c0-0.2,0.1-0.4,0.2-0.6l2.2-2.9h-4.1h-2.5c-0.3,0-0.5-0.2-0.5-0.5v-3.5
				c0-0.3,0.2-0.5,0.5-0.5h2.5h5.4l-0.5-0.6c-0.2-0.3-0.3-0.6-0.2-0.9l4.9-17.7c-0.1-0.1-0.1-0.2-0.1-0.3v-0.6h-1.2v0.6
				c0,0.7-1,0.7-1,0v-2.2c0-0.6,1-0.6,1,0v0.6h1.2v-0.6c0-0.3,0.2-0.5,0.5-0.5h11.5v-0.3c0-0.3,0.2-0.5,0.5-0.5h2.9
				c0.3,0,0.5,0.2,0.5,0.5v1.4h17.4v-1.1c0-0.6,1-0.6,1,0v1.1h5.8c0.7,0,0.7,1,0,1h-5.8V19c0,0.6-1,0.6-1,0v-1.1H39.2v1.4
				c0,0.3-0.2,0.5-0.5,0.5h-2.9c-0.3,0-0.5-0.2-0.5-0.5V19h-0.6v17.6h1.4c0.3,0,0.5,0.2,0.5,0.5v6.2c0,0.3-0.2,0.5-0.5,0.5h-1.4v0.2
				l43,2.5l0.5-0.4c0.2-0.2,0.5-0.2,0.7-0.2l9.9,1.1c0.5,0,0.9,0.5,0.9,1v3.9c0,0.5-0.4,0.9-0.9,1L78.9,54c-0.3,0-0.5,0-0.7-0.2
				l-0.5-0.4l-43,2.5v0.2h1.4c0.3,0,0.5,0.2,0.5,0.5v6.2c0,0.3-0.2,0.5-0.5,0.5h-1.4V81h0.6v-0.3c0-0.3,0.2-0.5,0.5-0.5h2.9
				c0.3,0,0.5,0.2,0.5,0.5v1.4h17.4V81c0-0.7,1-0.7,1,0v1.1h5.8c0.7,0,0.7,1,0,1h-5.8v1.1c0,0.6-1,0.6-1,0v-1.1H39.2v1.4
				c0,0.3-0.2,0.5-0.5,0.5h-2.9c-0.3,0-0.5-0.2-0.5-0.5V84.2z"/>
		</g>
		<g>
		</g>
	</g>
</g>
</svg>
